<?xml version="1.0" encoding="UTF-8"?>
<!-- Uploaded to: SVG Repo, www.svgrepo.com, Generator: SVG Repo Mixer Tools -->
<svg id="svg1" width="800px" height="800px" version="1.1" viewBox="0 0 1024 1024" xmlns="http://www.w3.org/2000/svg">
 <circle id="circle1" cx="512" cy="512" r="512" fill="#5865f2"/>
 <path id="path1" d="m728.87 312.82a516.06 516.06 0 0 0-127.39-39.504 1.9312 1.9312 0 0 0-2.0534 0.9656 359.48 359.48 0 0 0-15.89 32.586 476.42 476.42 0 0 0-143.07 0 329.71 329.71 0 0 0-16.11-32.586 2.0045 2.0045 0 0 0-2.0534-0.9656 514.58 514.58 0 0 0-127.34 39.504 1.8212 1.8212 0 0 0-0.84337 0.72114c-81.122 121.21-103.34 239.44-92.441 356.18a2.1512 2.1512 0 0 0 0.81893 1.4667 518.95 518.95 0 0 0 156.27 78.996 2.029 2.029 0 0 0 2.2001-0.72114 370.9 370.9 0 0 0 31.962-51.996 1.9801 1.9801 0 0 0-1.0878-2.7501 341.75 341.75 0 0 1-48.818-23.223 2.0045 2.0045 0 0 1-0.19556-3.3246c3.2757-2.4446 6.5636-5.0113 9.6926-7.6026a1.9312 1.9312 0 0 1 2.0168-0.2689c102.41 46.764 213.3 46.764 314.5 0a1.9312 1.9312 0 0 1 2.0534 0.24445c3.129 2.579 6.417 5.1702 9.7782 7.627a2.0045 2.0045 0 0 1-0.17112 3.3246 320.69 320.69 0 0 1-48.891 23.223 1.9923 1.9923 0 0 0-1.0634 2.7868 416.45 416.45 0 0 0 31.938 51.971 1.9801 1.9801 0 0 0 2.2001 0.74559 517.23 517.23 0 0 0 156.45-78.996 2.0045 2.0045 0 0 0 0.81893-1.4423c13.054-134.99-21.854-252.25-92.526-356.2a1.589 1.589 0 0 0-0.77003-0.77003zm-320.65 285.83c-30.838 0-56.225-28.308-56.225-63.069s24.91-63.069 56.225-63.069c31.571 0 56.738 28.552 56.225 63.069 0.0245 34.762-24.898 63.069-56.225 63.069zm207.95 0c-30.838 0-56.225-28.308-56.225-63.069s24.91-63.069 56.225-63.069c31.571 0 56.738 28.552 56.225 63.069 0.0122 34.762-24.653 63.069-56.225 63.069z" fill="#fff" stroke-width="1.2223"/>
</svg>
